<svg xmlns:xlink="http://www.w3.org/1999/xlink" xmlns="http://www.w3.org/2000/svg" width="42" height="42" viewBox="0 0 42 42" fill="none">
<path d="M10.3333 15.6667C9.95556 15.6667 9.63867 15.5387 9.38267 15.2827C9.12667 15.0267 8.99912 14.7102 9 14.3333C9 13.9556 9.128 13.6387 9.384 13.3827C9.64 13.1267 9.95645 12.9991 10.3333 13H31.6667C32.0444 13 32.3613 13.128 32.6173 13.384C32.8733 13.64 33.0009 13.9564 33 14.3333C33 14.7111 32.872 15.028 32.616 15.284C32.36 15.54 32.0435 15.6676 31.6667 15.6667H10.3333Z" fill="black"/>
<path d="M10.3333 22.3337C9.95556 22.3337 9.63867 22.2057 9.38267 21.9497C9.12667 21.6937 8.99912 21.3772 9 21.0003C9 20.6226 9.128 20.3057 9.384 20.0497C9.64 19.7937 9.95645 19.6661 10.3333 19.667H31.6667C32.0444 19.667 32.3613 19.795 32.6173 20.051C32.8733 20.307 33.0009 20.6234 33 21.0003C33 21.3781 32.872 21.695 32.616 21.951C32.36 22.207 32.0435 22.3346 31.6667 22.3337H10.3333Z" fill="black"/>
<path d="M10.3333 28.9997C9.95556 28.9997 9.63867 28.8717 9.38267 28.6157C9.12667 28.3597 8.99912 28.0432 9 27.6663C9 27.2886 9.128 26.9717 9.384 26.7157C9.64 26.4597 9.95645 26.3321 10.3333 26.333H31.6667C32.0444 26.333 32.3613 26.461 32.6173 26.717C32.8733 26.973 33.0009 27.2895 33 27.6663C33 28.0441 32.872 28.361 32.616 28.617C32.36 28.873 32.0435 29.0006 31.6667 28.9997H10.3333Z" fill="black"/>
</svg>