<svg width="54" height="54" viewBox="0 0 54 54" fill="none" xmlns="http://www.w3.org/2000/svg">
<g filter="url(#filter0_d)">
<path d="M31.8 23.0791C33.7095 23.0791 35.5409 23.8377 36.8911 25.1879C38.2414 26.5382 39 28.3695 39 30.2791V38.6791H34.2V30.2791C34.2 29.6426 33.9471 29.0321 33.497 28.582C33.0469 28.132 32.4365 27.8791 31.8 27.8791C31.1635 27.8791 30.553 28.132 30.1029 28.582C29.6528 29.0321 29.4 29.6426 29.4 30.2791V38.6791H24.6V30.2791C24.6 28.3695 25.3585 26.5382 26.7088 25.1879C28.0591 23.8377 29.8904 23.0791 31.8 23.0791V23.0791Z" stroke="#E7EDFF" stroke-width="2" stroke-linecap="round" stroke-linejoin="round"/>
<path d="M19.8 24.2788H15V38.6788H19.8V24.2788Z" stroke="#E7EDFF" stroke-width="2" stroke-linecap="round" stroke-linejoin="round"/>
<path d="M17.4 20.6792C18.7255 20.6792 19.8 19.6046 19.8 18.2792C19.8 16.9537 18.7255 15.8792 17.4 15.8792C16.0745 15.8792 15 16.9537 15 18.2792C15 19.6046 16.0745 20.6792 17.4 20.6792Z" stroke="#E7EDFF" stroke-width="2" stroke-linecap="round" stroke-linejoin="round"/>
</g>
<defs>
<filter id="filter0_d" x="-4" y="0.87915" width="62" height="60.8" filterUnits="userSpaceOnUse" color-interpolation-filters="sRGB">
<feFlood flood-opacity="0" result="BackgroundImageFix"/>
<feColorMatrix in="SourceAlpha" type="matrix" values="0 0 0 0 0 0 0 0 0 0 0 0 0 0 0 0 0 0 127 0" result="hardAlpha"/>
<feOffset dy="4"/>
<feGaussianBlur stdDeviation="2"/>
<feColorMatrix type="matrix" values="0 0 0 0 0 0 0 0 0 0 0 0 0 0 0 0 0 0 0.25 0"/>
<feBlend mode="normal" in2="BackgroundImageFix" result="effect1_dropShadow"/>
<feBlend mode="normal" in="SourceGraphic" in2="effect1_dropShadow" result="shape"/>
</filter>
</defs>
</svg>
