<svg width="54" height="54" viewBox="0 0 54 54" fill="none" xmlns="http://www.w3.org/2000/svg">
<path d="M41.6666 15.0002C40.3898 15.9009 38.9761 16.5897 37.48 17.0402C36.677 16.1169 35.6098 15.4625 34.4227 15.1655C33.2356 14.8684 31.986 14.9432 30.8428 15.3795C29.6995 15.8158 28.7179 16.5928 28.0306 17.6052C27.3433 18.6176 26.9836 19.8167 27 21.0402V22.3736C24.6568 22.4343 22.335 21.9146 20.2413 20.8608C18.1476 19.807 16.3471 18.2517 15 16.3336C15 16.3336 9.66665 28.3336 21.6666 33.6669C18.9207 35.5308 15.6495 36.4655 12.3333 36.3336C24.3333 43.0002 39 36.3336 39 21.0002C38.9988 20.6288 38.963 20.2583 38.8933 19.8936C40.2541 18.5515 41.2144 16.8572 41.6666 15.0002V15.0002Z" stroke="#E7EDFF" stroke-width="2" stroke-linecap="round" stroke-linejoin="round"/>
</svg>
