<svg xmlns:xlink="http://www.w3.org/1999/xlink" xmlns="http://www.w3.org/2000/svg" width="24" height="24" viewBox="0 0 24 24" fill="none">
<g clip-path="url(#clip0_817_5755)">
<path d="M13.41 12L17.21 8.2C17.6 7.81 17.6 7.18 17.21 6.79C16.82 6.4 16.19 6.4 15.8 6.79L12 10.59L8.2 6.79C7.81 6.4 7.18 6.4 6.79 6.79C6.4 7.18 6.4 7.81 6.79 8.2L10.59 12L6.79 15.8C6.4 16.19 6.4 16.82 6.79 17.21C6.99 17.41 7.24 17.5 7.5 17.5C7.76 17.5 8.01 17.4 8.21 17.21L12.01 13.41L15.81 17.21C16.01 17.41 16.26 17.5 16.52 17.5C16.78 17.5 17.03 17.4 17.23 17.21C17.62 16.82 17.62 16.19 17.23 15.8L13.43 12H13.41Z" fill="#231F20"/>
</g>
<defs>
<clipPath id="clip0_817_5755">
<rect width="24" height="24" fill="white"/>
</clipPath>
</defs>
</svg>